<svg id="_0140_user_group" data-name="0140_user_group" xmlns="http://www.w3.org/2000/svg" viewBox="0 0 500 500"><defs><style>.cls-1{fill:#68e1fd;}.cls-2{fill:#231f20;}.cls-3{fill:#fff;}</style></defs><g id="Character_Male_2" data-name="Character Male #2"><path class="cls-1" d="M227.39,336.74a505,505,0,0,1-80.26,12.14c-6.87.42-13.83.67-20.78.67s-13.91-.25-20.76-.67a505.48,505.48,0,0,1-80.28-12.14s-1-33.86,20.52-56.93,58.45-25.13,80.52-25.13,59,2.05,80.53,25.13S227.39,336.74,227.39,336.74Z"/><path class="cls-2" d="M147.13,265.93v82.95c-6.87.42-13.83.67-20.78.67s-13.91-.25-20.76-.67V265.93Z"/><ellipse class="cls-3" cx="126.89" cy="193.42" rx="37.79" ry="43.31"/><path class="cls-2" d="M126.89,237.45c-21.23,0-38.51-19.75-38.51-44,0-25.79,2.76-44,38.51-44s38.51,18.24,38.51,44C165.4,217.7,148.12,237.45,126.89,237.45Zm0-86.62c-34.48,0-37.06,16.86-37.06,42.59,0,23.48,16.62,42.58,37.06,42.58S164,216.9,164,193.42C164,167.69,161.37,150.83,126.89,150.83Z"/><path class="cls-3" d="M150.74,208.3c1.85-11.53,21-14.37,20-.78-.33,4.67-1.83,9.42-5.11,12.76s-8.57,4.92-12.84,3"/><path class="cls-2" d="M156.84,224.84a10.44,10.44,0,0,1-4.29-.89.72.72,0,1,1,.59-1.32c3.77,1.69,8.72.52,12-2.85,3.59-3.66,4.65-8.72,4.9-12.31.47-6.76-4.12-8-6.12-8.25-5.11-.58-11.51,3-12.5,9.19a.72.72,0,1,1-1.42-.23c1.11-7,8.31-11.05,14.08-10.39,3.88.44,7.85,3.24,7.4,9.78-.27,3.84-1.41,9.25-5.31,13.22A13.33,13.33,0,0,1,156.84,224.84Z"/><path class="cls-3" d="M103,208.3c-1.85-11.53-21-14.37-20.05-.78.33,4.67,1.83,9.42,5.1,12.76s8.57,4.92,12.85,3"/><path class="cls-2" d="M96.94,224.84a13.33,13.33,0,0,1-9.36-4.05c-3.9-4-5-9.38-5.31-13.22-.45-6.54,3.52-9.34,7.39-9.78,5.78-.66,13,3.44,14.09,10.39a.72.72,0,0,1-.6.83.73.73,0,0,1-.83-.6c-1-6.15-7.38-9.77-12.49-9.19-2,.23-6.59,1.49-6.12,8.25.25,3.59,1.31,8.65,4.9,12.31,3.31,3.37,8.26,4.54,12,2.85a.71.71,0,0,1,1,.36.72.72,0,0,1-.36,1A10.47,10.47,0,0,1,96.94,224.84Z"/><path class="cls-3" d="M105.59,265.93s5.18,11.28,20.29,11.28,21.24-11.28,21.24-11.28l-2-44.32H107.61Z"/><path class="cls-2" d="M125.88,277.94c-15.39,0-20.9-11.59-20.95-11.71a.75.75,0,0,1-.07-.33l2-44.32a.73.73,0,0,1,.73-.69H145.1a.71.71,0,0,1,.72.69l2,44.32a.73.73,0,0,1-.08.38A25.38,25.38,0,0,1,125.88,277.94Zm-19.56-12.16c.69,1.37,5.89,10.71,19.56,10.71a24,24,0,0,0,20.51-10.74l-2-43.42H108.3Z"/><path class="cls-2" d="M107.6,240.58c2.61,4.19,6.92,7.48,11.34,9.93,7.43,4.11,18.53,8.73,27.54,7.35L145,239.12a84.54,84.54,0,0,1-19.88.13c-5.82-.51-11.82-1.07-17.16-3.32C107,235.53,106.45,238.77,107.6,240.58Z"/><path class="cls-2" d="M143.05,258.81c-9.08,0-19-4.66-24.45-7.69S109.37,244.74,107,241c-1-1.65-.91-4.35-.08-5.32a1.11,1.11,0,0,1,1.31-.33c5.34,2.24,11.5,2.78,16.94,3.26a83.08,83.08,0,0,0,19.72-.13.73.73,0,0,1,.54.15.72.72,0,0,1,.26.49l1.48,18.74a.69.69,0,0,1-.59.74A23.05,23.05,0,0,1,143.05,258.81Zm-35.14-22.14a4.44,4.44,0,0,0,.28,3.54h0c2.23,3.59,6,6.85,11.08,9.69,5.9,3.27,17.07,8.49,26.46,7.36l-1.37-17.34a86.51,86.51,0,0,1-19.32,0C119.59,239.47,113.4,238.93,107.91,236.67Zm-.22-.09h0Z"/><path class="cls-3" d="M125.35,243.54h3.08a26.43,26.43,0,0,0,26.43-26.44V175.25s-9.19,2.65-28,2.65-28-2.65-28-2.65V217.1A26.44,26.44,0,0,0,125.35,243.54Z"/><path class="cls-2" d="M154.86,175.25V217.1a26.43,26.43,0,0,1-26.43,26.44h-3.08A26.43,26.43,0,0,1,98.92,217.1V175.25s9.19,2.65,28,2.65,28-2.65,28-2.65m0-1.44a1.9,1.9,0,0,0-.4.05c-.09,0-9.27,2.59-27.57,2.59s-27.49-2.56-27.58-2.59a1.74,1.74,0,0,0-.39-.05,1.44,1.44,0,0,0-.87.29,1.42,1.42,0,0,0-.58,1.15V217.1A27.91,27.91,0,0,0,125.35,245h3.08a27.91,27.91,0,0,0,27.88-27.88V175.25a1.45,1.45,0,0,0-1.45-1.44Z"/><path class="cls-2" d="M68.88,342.66a.73.73,0,0,1-.72-.65l-5.75-56a.72.72,0,0,1,.65-.79.74.74,0,0,1,.79.64l5.75,56a.74.74,0,0,1-.65.8Z"/><path class="cls-2" d="M183.83,342.66h-.08a.74.74,0,0,1-.64-.8l5.75-56a.73.73,0,0,1,.79-.64.72.72,0,0,1,.65.79l-5.75,56A.73.73,0,0,1,183.83,342.66Z"/></g><g id="Character_Female" data-name="Character Female"><path class="cls-3" d="M412.27,193.49c0,23.95,59.35,117.78-37.84,117.78s-37.85-93.83-37.85-117.78,1.59-43.38,37.85-43.38S412.27,169.53,412.27,193.49Z"/><path class="cls-2" d="M374.43,312c-24.33,0-41-6-49.5-17.83-14.36-20-3.46-52.48,4.5-76.24,3.45-10.3,6.43-19.2,6.43-24.43,0-25.83,2.76-44.1,38.57-44.1S413,167.66,413,193.49c0,5.23,3,14.13,6.43,24.43,7.95,23.76,18.85,56.29,4.49,76.24C415.41,306,398.76,312,374.43,312Zm0-161.16c-34.54,0-37.13,16.89-37.13,42.66,0,5.46-3,14.46-6.5,24.89-7.86,23.46-18.62,55.59-4.69,74.94,8.22,11.43,24.48,17.23,48.32,17.23s40.09-5.8,48.32-17.23c13.93-19.35,3.17-51.48-4.69-74.94-3.49-10.43-6.51-19.43-6.51-24.89C411.55,167.72,409,150.83,374.43,150.83Z"/><path class="cls-1" d="M474.69,336.74a505,505,0,0,1-80.26,12.14c-6.87.42-13.83.67-20.78.67s-13.91-.25-20.76-.67a505.48,505.48,0,0,1-80.28-12.14s-1-33.86,20.52-56.93,58.45-25.13,80.52-25.13,59,2.05,80.53,25.13S474.69,336.74,474.69,336.74Z"/><path class="cls-2" d="M394.43,265.93v82.95c-6.87.42-13.83.67-20.78.67s-13.91-.25-20.76-.67V265.93Z"/><path class="cls-2" d="M316.18,342.66a.73.73,0,0,1-.72-.65l-5.75-56a.72.72,0,0,1,.64-.79.75.75,0,0,1,.8.64l5.75,56a.74.74,0,0,1-.65.8Z"/><path class="cls-2" d="M431.13,342.66h-.08a.74.74,0,0,1-.64-.8l5.75-56a.73.73,0,0,1,.79-.64.72.72,0,0,1,.65.79l-5.75,56A.73.73,0,0,1,431.13,342.66Z"/><path class="cls-3" d="M398.32,208.39c1.85-11.55,21-14.39,20.08-.78-.33,4.68-1.83,9.44-5.12,12.79s-8.58,4.92-12.86,3"/><path class="cls-2" d="M404.42,225a10.47,10.47,0,0,1-4.29-.89.72.72,0,1,1,.59-1.32c3.77,1.69,8.73.52,12-2.86,3.6-3.67,4.65-8.73,4.9-12.33.48-6.77-4.12-8-6.12-8.26-5.16-.58-11.53,3-12.52,9.21a.72.72,0,1,1-1.43-.23c1.12-7,8.34-11.08,14.11-10.42,3.88.45,7.86,3.26,7.41,9.8-.27,3.85-1.41,9.26-5.32,13.24A13.37,13.37,0,0,1,404.42,225Z"/><path class="cls-3" d="M350.54,208.39c-1.85-11.55-21-14.39-20.08-.78.32,4.68,1.83,9.44,5.11,12.79s8.58,4.92,12.86,3"/><path class="cls-2" d="M344.43,225a13.4,13.4,0,0,1-9.38-4.06c-3.9-4-5-9.39-5.31-13.24-.46-6.54,3.52-9.35,7.4-9.8,5.77-.66,13,3.46,14.11,10.42a.73.73,0,0,1-.6.83.74.74,0,0,1-.83-.6c-1-6.16-7.4-9.79-12.51-9.21-2,.23-6.6,1.49-6.13,8.26.25,3.6,1.31,8.66,4.9,12.33,3.32,3.37,8.28,4.55,12.06,2.86a.71.71,0,0,1,.95.36.73.73,0,0,1-.36,1A10.52,10.52,0,0,1,344.43,225Z"/><path class="cls-3" d="M353.09,266.12s5.19,11.3,20.33,11.3c12.08,0,21.27-11.3,21.27-11.3l-2-44.39H355.11Z"/><path class="cls-2" d="M373.42,278.14c-15.42,0-20.93-11.6-21-11.72a.79.79,0,0,1-.06-.34l2-44.39a.72.72,0,0,1,.72-.68h37.56a.72.72,0,0,1,.72.68l2,44.39a.72.72,0,0,1-.17.49C394.87,267.05,385.7,278.14,373.42,278.14ZM353.82,266c.69,1.37,5.9,10.73,19.6,10.73,10.7,0,19.23-9.32,20.54-10.83l-2-43.42H355.8Z"/><path class="cls-2" d="M355.11,240.73c2.61,4.19,6.93,7.49,11.35,9.94,7.44,4.12,18.57,8.75,27.59,7.37l-1.48-18.77a84.88,84.88,0,0,1-19.92.13c-5.83-.51-11.84-1.08-17.18-3.33C354.55,235.66,354,238.91,355.11,240.73Z"/><path class="cls-2" d="M390.61,259c-9.09,0-19-4.66-24.48-7.7s-9.25-6.39-11.61-10.18c-1-1.66-.92-4.36-.08-5.33a1.1,1.1,0,0,1,1.31-.33c5.34,2.24,11.52,2.79,17,3.26a83.47,83.47,0,0,0,19.76-.12.7.7,0,0,1,.54.14.67.67,0,0,1,.25.49L394.75,258a.7.7,0,0,1-.59.75A24.52,24.52,0,0,1,390.61,259Zm-35.2-22.18a4.47,4.47,0,0,0,.29,3.55h0c2.24,3.59,6,6.86,11.1,9.7,5.91,3.28,17.11,8.5,26.51,7.38l-1.38-17.38a86.08,86.08,0,0,1-19.34,0C367.11,239.61,360.91,239.07,355.41,236.8Zm-.21-.09h0Z"/><path class="cls-3" d="M402.44,186.76v30.46A26.46,26.46,0,0,1,376,243.69h-3.08a26.48,26.48,0,0,1-26.49-26.47V188.33l16.67-1.39L365,173.72l4.17,15L381,187.11c1.21-5.28-.05-16.69-.18-17.21l8.52,16Z"/><path class="cls-2" d="M376,244.41h-3.08a27.23,27.23,0,0,1-27.21-27.19V188.33a.72.72,0,0,1,.66-.72l16.09-1.34,1.83-12.65a.72.72,0,0,1,.67-.62.69.69,0,0,1,.75.53l4,14.35,10.69-1.42c1-5.3-.16-15.86-.27-16.4a.74.74,0,0,1,.46-.84.73.73,0,0,1,.88.34l8.33,15.64,12.72.84a.73.73,0,0,1,.68.72v30.46A27.23,27.23,0,0,1,376,244.41ZM347.13,189v28.23A25.78,25.78,0,0,0,372.89,243H376a25.78,25.78,0,0,0,25.75-25.74V187.44l-12.44-.82a.71.71,0,0,1-.59-.39l-6.8-12.75c.32,4,.61,10.23-.21,13.79a.72.72,0,0,1-.61.56l-11.82,1.56a.71.71,0,0,1-.79-.52l-3.26-11.66L363.78,187a.73.73,0,0,1-.65.62Z"/></g><g id="Character_Male_1" data-name="Character Male #1"><path class="cls-1" d="M351.78,288.25C324.55,259.07,277.9,256.48,250,256.48s-74.55,2.59-101.78,31.77-25.93,71.95-25.93,71.95S187.12,376.41,250,376.41,377.71,360.2,377.71,360.2,379,317.42,351.78,288.25Z"/><path class="cls-2" d="M276.25,270.7,257.65,335,250,361.42l-7.67-26.52-18.58-64.2C236.34,267,263.66,267,276.25,270.7Z"/><ellipse class="cls-3" cx="250.68" cy="179.05" rx="47.76" ry="54.74"/><path class="cls-2" d="M250.68,234.51c-26.74,0-48.49-24.88-48.49-55.46,0-32.47,3.48-55.46,48.49-55.46s48.48,23,48.48,55.46C299.16,209.63,277.41,234.51,250.68,234.51Zm0-109.47c-43.77,0-47,21.38-47,54,0,29.79,21.1,54,47,54s47-24.23,47-54C297.71,146.42,294.44,125,250.68,125Z"/><path class="cls-3" d="M280.82,197.86c2.34-14.57,26.54-18.16,25.34-1-.41,5.9-2.31,11.91-6.45,16.13s-10.83,6.22-16.23,3.8"/><path class="cls-2" d="M288.53,218.57a13,13,0,0,1-5.35-1.1.72.72,0,0,1,.6-1.32c4.84,2.17,11.18.67,15.41-3.65,4.59-4.66,5.93-11.09,6.25-15.67.42-6-2.53-10-7.9-10.63-6.56-.76-14.74,3.9-16,11.78a.74.74,0,0,1-.83.6.73.73,0,0,1-.6-.83c1.39-8.68,10.42-13.79,17.59-13,4.81.55,9.75,4,9.18,12.16-.34,4.82-1.76,11.61-6.65,16.59A16.68,16.68,0,0,1,288.53,218.57Z"/><path class="cls-3" d="M220.53,197.86c-2.34-14.57-26.54-18.16-25.34-1,.41,5.9,2.31,11.91,6.45,16.13s10.83,6.22,16.23,3.8"/><path class="cls-2" d="M212.82,218.57a16.64,16.64,0,0,1-11.69-5c-4.89-5-6.32-11.77-6.66-16.59-.57-8.13,4.37-11.61,9.18-12.16,7.19-.82,16.2,4.3,17.59,13a.72.72,0,1,1-1.42.23c-1.27-7.88-9.43-12.53-16-11.78-5.37.62-8.32,4.59-7.9,10.63.32,4.57,1.66,11,6.25,15.67,4.24,4.32,10.58,5.82,15.42,3.65a.71.71,0,0,1,.95.36.73.73,0,0,1-.36,1A13,13,0,0,1,212.82,218.57Z"/><path class="cls-3" d="M223.75,270.71S230.3,285,249.4,285s26.85-14.26,26.85-14.26l-2.55-56H226.3Z"/><path class="cls-2" d="M249.4,285.69c-19.34,0-26.24-14.54-26.3-14.68a.67.67,0,0,1-.07-.34l2.55-56a.72.72,0,0,1,.72-.69h47.4a.72.72,0,0,1,.72.69l2.55,56a.63.63,0,0,1-.09.38C276.8,271.2,268.68,285.69,249.4,285.69Zm-24.92-15.14c.77,1.5,7.58,13.7,24.92,13.7s25.17-12.15,26.12-13.72L273,215.41H227Z"/><path class="cls-2" d="M226.3,238.66c3.29,5.3,8.74,9.46,14.33,12.56,9.39,5.19,23.42,11,34.81,9.29l-1.87-23.68a107.6,107.6,0,0,1-25.14.16c-7.35-.65-14.93-1.36-21.68-4.2C225.59,232.28,224.85,236.37,226.3,238.66Z"/><path class="cls-2" d="M271.1,261.52c-11.43,0-23.91-5.88-30.81-9.69-6.71-3.73-11.62-8-14.58-12.8-1.25-2-1.13-5.33-.12-6.5a1.19,1.19,0,0,1,1.44-.37c6.77,2.84,14.58,3.53,21.47,4.13,10,.92,17.75.87,25-.15a.7.7,0,0,1,.54.14.67.67,0,0,1,.25.49l1.88,23.68a.7.7,0,0,1-.59.75A29.79,29.79,0,0,1,271.1,261.52Zm-44.5-28a5.59,5.59,0,0,0,.29,4.8h0c2.84,4.56,7.57,8.7,14.07,12.31,7.52,4.16,21.78,10.81,33.74,9.3l-1.77-22.29c-7.12.94-14.74,1-24.56.06C241.42,237.07,233.55,236.38,226.6,233.49Zm-.12-.06h0Z"/><path class="cls-3" d="M248.73,242.4h3.89A33.41,33.41,0,0,0,286,209V156.1s-11.61,3.34-35.35,3.34-35.36-3.34-35.36-3.34V209A33.41,33.41,0,0,0,248.73,242.4Z"/><path class="cls-2" d="M286,156.1V209a33.41,33.41,0,0,1-33.41,33.41h-3.89A33.41,33.41,0,0,1,215.32,209V156.1s11.62,3.34,35.36,3.34S286,156.1,286,156.1m-70.71-1.45a1.45,1.45,0,0,0-1.45,1.45V209a34.9,34.9,0,0,0,34.86,34.86h3.89A34.9,34.9,0,0,0,287.48,209V156.1a1.47,1.47,0,0,0-.58-1.16,1.42,1.42,0,0,0-1.27-.23c-.11,0-11.75,3.28-34.95,3.28s-34.85-3.25-35-3.28a1.39,1.39,0,0,0-.4-.06Z"/><polygon class="cls-3" points="250 299.76 240.99 292.81 250 285.86 259.01 292.81 250 299.76"/><polygon class="cls-3" points="257.65 334.95 250 361.43 242.34 334.9 246.96 295.98 247.07 295.17 252.94 295.17 253.02 296.01 257.65 334.95"/><path class="cls-2" d="M177.35,367.5a.72.72,0,0,1-.71-.65l-7.27-70.8a.73.73,0,0,1,.64-.79.75.75,0,0,1,.8.65l7.27,70.79a.73.73,0,0,1-.65.79Z"/><path class="cls-2" d="M322.65,367.5h-.08a.71.71,0,0,1-.64-.79l7.26-70.79a.74.74,0,0,1,.8-.65.73.73,0,0,1,.64.79l-7.27,70.8A.72.72,0,0,1,322.65,367.5Z"/><path class="cls-2" d="M122.36,359.78h0a.72.72,0,0,1-.69-.75c0-.55,2.86-55.37,32.57-77.46,27-20.1,69-24.7,69.47-24.74a.72.72,0,0,1,.79.64.74.74,0,0,1-.64.8c-.42,0-42,4.6-68.76,24.46-29.16,21.68-32,75.82-32,76.36A.73.73,0,0,1,122.36,359.78Z"/><path class="cls-2" d="M377.72,359.78a.73.73,0,0,1-.73-.69c0-.54-2.82-54.68-32-76.36-26.72-19.86-68.34-24.42-68.76-24.46a.74.74,0,0,1-.64-.8.72.72,0,0,1,.79-.64c.43,0,42.43,4.64,69.47,24.74,29.71,22.09,32.54,76.91,32.57,77.46a.72.72,0,0,1-.69.75Z"/></g></svg>